<?xml version="1.0" standalone="no"?>
<!DOCTYPE svg PUBLIC "-//W3C//DTD SVG 20010904//EN"
 "http://www.w3.org/TR/2001/REC-SVG-20010904/DTD/svg10.dtd">
<svg version="1.0" xmlns="http://www.w3.org/2000/svg"
 width="288.000000pt" height="288.000000pt" viewBox="0 0 288.000000 288.000000"
 preserveAspectRatio="xMidYMid meet">
<metadata>
Created by potrace 1.14, written by Peter Selinger 2001-2017
</metadata>
<g transform="translate(0.000000,288.000000) scale(0.100000,-0.100000)"
fill="#000000" stroke="none">
<path d="M1302 2689 c-173 -20 -353 -81 -495 -167 l-79 -47 94 -6 c106 -6 144
-22 184 -75 49 -63 45 -100 -55 -564 -49 -228 -88 -416 -87 -417 1 -2 60 67
130 152 159 194 335 378 395 413 45 27 49 27 256 30 l210 4 -160 -164 c-187
-190 -435 -463 -435 -478 0 -19 92 -212 144 -304 63 -109 109 -158 172 -181
27 -10 50 -20 52 -21 8 -5 -40 -85 -69 -113 -43 -44 -76 -59 -156 -72 -53 -9
-83 -8 -127 1 -94 19 -137 67 -234 258 -43 86 -103 212 -132 280 -30 67 -57
119 -61 115 -3 -5 -34 -143 -68 -308 -35 -165 -65 -308 -67 -317 -5 -16 -19
-18 -119 -18 -63 0 -126 5 -140 10 l-27 10 33 -42 c65 -83 192 -199 290 -264
444 -295 1012 -279 1449 42 65 47 234 213 226 221 -2 2 -41 -1 -87 -8 -278
-40 -527 68 -643 280 -83 154 -86 393 -7 611 79 217 248 383 461 454 94 31
233 50 322 44 37 -3 68 -2 68 3 0 24 -135 204 -211 279 -269 270 -650 403
-1027 359z"/>
<path d="M562 2332 c-365 -365 -469 -909 -266 -1387 l39 -90 7 60 c4 33 76
384 161 780 85 396 153 721 152 723 -2 2 -44 -37 -93 -86z"/>
<path d="M2263 1680 c-126 -64 -204 -233 -202 -439 1 -111 12 -149 57 -195 39
-41 103 -60 174 -54 175 15 289 192 291 453 1 119 -19 175 -79 221 -33 26 -47
29 -118 32 -67 2 -88 -1 -123 -18z"/>
</g>
</svg>
